<svg viewBox="0 0 1200 630" xmlns="http://www.w3.org/2000/svg" font-family="Inter, ui-sans-serif, system-ui, sans-serif">
  <defs>
    <linearGradient id="presence-gradient" x1="0%" y1="0%" x2="100%" y2="0%">
      <stop offset="0%" stop-color="#00f3ff" />
      <stop offset="55%" stop-color="#00ff9f" />
      <stop offset="100%" stop-color="#ff66ff" />
    </linearGradient>
    <filter id="presence-glow" x="-20%" y="-20%" width="140%" height="140%">
      <feGaussianBlur stdDeviation="10" result="blur" />
      <feComposite in="SourceGraphic" in2="blur" operator="over" />
    </filter>
    <marker id="presence-arrow" markerWidth="9" markerHeight="6" refX="8" refY="3" orient="auto">
      <polygon points="0 0, 9 3, 0 6" fill="#00f3ff" opacity="0.9" />
    </marker>
    <pattern id="presence-grid" width="44" height="44" patternUnits="userSpaceOnUse">
      <path d="M 44 0 L 0 0 0 44" fill="none" stroke="#00f3ff" stroke-width="1" opacity="0.12" />
    </pattern>
  </defs>

  <rect width="1200" height="630" fill="#050505" />
  <rect width="1200" height="630" fill="url(#presence-grid)" />
  <circle cx="600" cy="315" r="320" fill="#00f3ff" opacity="0.035" filter="url(#presence-glow)" />

  <text x="72" y="34" fill="#00f3ff" font-size="14" font-weight="800" letter-spacing="2">PROTOBUF SIMPLIFIED</text>
  <text x="72" y="82" fill="#e2e8f0" font-size="46" font-weight="800">Field presence in proto3</text>
  <text x="74" y="120" fill="#94a3b8" font-size="22">For plain scalars, missing and zero are both omitted on the wire.</text>

  <g transform="translate(70 182)">
    <rect width="470" height="270" rx="10" fill="#0d0d12" stroke="url(#presence-gradient)" stroke-width="3" filter="url(#presence-glow)" />
    <text x="28" y="44" fill="#94a3b8" font-size="14" font-weight="800" letter-spacing="3">WITH PRESENCE</text>
    <g font-family="ui-monospace, SFMono-Regular, Menlo, monospace" font-size="18">
      <text x="28" y="84" fill="#ff66ff">message</text>
      <text x="122" y="84" fill="#e2e8f0">Profile {</text>
      <text x="48" y="124" fill="#ff66ff">optional</text>
      <text x="142" y="124" fill="#00f3ff">int32</text>
      <text x="208" y="124" fill="#e2e8f0">age =</text>
      <text x="278" y="124" fill="#facc15">1</text>
      <text x="294" y="124" fill="#e2e8f0">;</text>
      <text x="28" y="160" fill="#e2e8f0">}</text>
    </g>
    <g font-family="ui-monospace, SFMono-Regular, Menlo, monospace" font-size="15" font-weight="800">
      <rect x="28" y="178" width="190" height="58" rx="8" fill="#00f3ff" fill-opacity="0.13" stroke="#00f3ff" stroke-opacity="0.45" />
      <text x="48" y="200" fill="#e2e8f0">[omitted]</text>
      <text x="48" y="222" fill="#00f3ff">wire: none</text>
      <rect x="245" y="178" width="185" height="58" rx="8" fill="#00ff9f" fill-opacity="0.13" stroke="#00ff9f" stroke-opacity="0.45" />
      <text x="265" y="200" fill="#e2e8f0">age: 0</text>
      <text x="265" y="222" fill="#00ff9f">wire: field 1</text>
    </g>
  </g>

  <path d="M 560 318 L 640 318" fill="none" stroke="#00f3ff" stroke-width="3.5" marker-end="url(#presence-arrow)" />

  <g transform="translate(660 182)">
    <rect width="470" height="270" rx="10" fill="#0d0d12" stroke="#ff66ff" stroke-width="2" />
    <text x="28" y="44" fill="#94a3b8" font-size="14" font-weight="800" letter-spacing="3">WITHOUT PRESENCE</text>
    <g font-family="ui-monospace, SFMono-Regular, Menlo, monospace" font-size="18">
      <text x="28" y="84" fill="#ff66ff">message</text>
      <text x="122" y="84" fill="#e2e8f0">Profile {</text>
      <text x="48" y="124" fill="#00f3ff">int32</text>
      <text x="114" y="124" fill="#e2e8f0">age =</text>
      <text x="184" y="124" fill="#facc15">1</text>
      <text x="200" y="124" fill="#e2e8f0">;</text>
      <text x="28" y="160" fill="#e2e8f0">}</text>
    </g>
    <g font-family="ui-monospace, SFMono-Regular, Menlo, monospace" font-size="15" font-weight="800">
      <rect x="28" y="172" width="190" height="54" rx="8" fill="#ff66ff" fill-opacity="0.13" stroke="#ff66ff" stroke-opacity="0.45" />
      <text x="48" y="194" fill="#e2e8f0">[omitted]</text>
      <text x="48" y="215" fill="#ff66ff">wire: none</text>
      <rect x="245" y="172" width="185" height="54" rx="8" fill="#facc15" fill-opacity="0.13" stroke="#facc15" stroke-opacity="0.45" />
      <text x="265" y="194" fill="#e2e8f0">age: 0</text>
      <text x="265" y="215" fill="#facc15">wire: none</text>
      <text x="235" y="252" fill="#e2e8f0" font-size="16" text-anchor="middle">both decode as age = 0</text>
    </g>
  </g>

  <g transform="translate(232 530)">
    <rect width="736" height="50" rx="25" fill="#ff66ff" fill-opacity="0.12" stroke="#ff66ff" stroke-opacity="0.55" />
    <text x="368" y="33" fill="#e2e8f0" font-size="21" font-weight="800" text-anchor="middle">Use optional when missing and zero need different meanings</text>
  </g>
</svg>
