<svg viewBox="0 0 1200 630" xmlns="http://www.w3.org/2000/svg" font-family="Inter, ui-sans-serif, system-ui, sans-serif">
  <defs>
    <linearGradient id="compiler-gradient" x1="0%" y1="0%" x2="100%" y2="0%">
      <stop offset="0%" stop-color="#00f3ff" />
      <stop offset="100%" stop-color="#ff66ff" />
    </linearGradient>
    <filter id="compiler-glow" x="-20%" y="-20%" width="140%" height="140%">
      <feGaussianBlur stdDeviation="10" result="blur" />
      <feComposite in="SourceGraphic" in2="blur" operator="over" />
    </filter>
    <marker id="compiler-arrow" markerWidth="12" markerHeight="8" refX="11" refY="4" orient="auto">
      <polygon points="0 0, 12 4, 0 8" fill="#00f3ff" opacity="0.9" />
    </marker>
    <pattern id="compiler-grid" width="44" height="44" patternUnits="userSpaceOnUse">
      <path d="M 44 0 L 0 0 0 44" fill="none" stroke="#00f3ff" stroke-width="1" opacity="0.12" />
    </pattern>
  </defs>

  <rect width="1200" height="630" fill="#050505" />
  <rect width="1200" height="630" fill="url(#compiler-grid)" />
  <circle cx="600" cy="315" r="300" fill="#ff66ff" opacity="0.035" filter="url(#compiler-glow)" />

  <text x="72" y="82" fill="#e2e8f0" font-size="46" font-weight="800">Schema to generated code</text>
  <text x="74" y="120" fill="#94a3b8" font-size="22">buf or protoc runs plugins that produce language-specific files.</text>
  <text x="72" y="34" fill="#00f3ff" font-size="14" font-weight="800" letter-spacing="2">PROTOBUF SIMPLIFIED</text>

  <g transform="translate(70 190)">
    <rect width="300" height="255" rx="10" fill="#0d0d12" stroke="#00f3ff" stroke-width="2" />
    <text x="28" y="42" fill="#94a3b8" font-size="14" font-weight="800" letter-spacing="3">SCHEMA</text>
    <text x="28" y="84" fill="#00f3ff" font-family="ui-monospace, SFMono-Regular, Menlo, monospace" font-size="20">user.proto</text>
    <g font-family="ui-monospace, SFMono-Regular, Menlo, monospace" font-size="19">
      <text x="28" y="130" fill="#ff66ff">message</text>
      <text x="130" y="130" fill="#e2e8f0">User {</text>
      <text x="48" y="172" fill="#00f3ff">string</text>
      <text x="132" y="172" fill="#e2e8f0">name =</text>
      <text x="214" y="172" fill="#facc15">1</text>
      <text x="228" y="172" fill="#e2e8f0">;</text>
      <text x="28" y="214" fill="#e2e8f0">}</text>
    </g>
  </g>

  <path d="M 374 318 L 448 318" fill="none" stroke="#00f3ff" stroke-width="4" marker-end="url(#compiler-arrow)" />

  <g transform="translate(470 190)">
    <rect width="260" height="255" rx="10" fill="#0d0d12" stroke="url(#compiler-gradient)" stroke-width="3" filter="url(#compiler-glow)" />
    <text x="130" y="60" fill="#e2e8f0" font-size="34" font-weight="900" text-anchor="middle">buf</text>
    <text x="130" y="104" fill="#94a3b8" font-size="22" text-anchor="middle">or</text>
    <text x="130" y="154" fill="#e2e8f0" font-size="34" font-weight="900" text-anchor="middle">protoc</text>
    <rect x="50" y="184" width="160" height="36" rx="18" fill="#00f3ff" fill-opacity="0.14" stroke="#00f3ff" stroke-opacity="0.45" />
    <text x="130" y="209" fill="#00f3ff" font-size="16" font-weight="800" text-anchor="middle">protoc plugins</text>
  </g>

  <path d="M 734 318 L 808 318" fill="none" stroke="#00f3ff" stroke-width="4" marker-end="url(#compiler-arrow)" />

  <g transform="translate(830 190)">
    <rect width="300" height="255" rx="10" fill="#0d0d12" stroke="#00ff9f" stroke-width="2" />
    <text x="28" y="42" fill="#94a3b8" font-size="14" font-weight="800" letter-spacing="3">GENERATED FILES</text>
    <g font-family="ui-monospace, SFMono-Regular, Menlo, monospace" font-size="18" font-weight="700">
      <rect x="28" y="62" width="244" height="36" rx="6" fill="#00ff9f" fill-opacity="0.12" stroke="#00ff9f" stroke-opacity="0.45" />
      <text x="48" y="86" fill="#00ff9f">user.pb.go</text>
      <rect x="28" y="108" width="244" height="36" rx="6" fill="#00f3ff" fill-opacity="0.12" stroke="#00f3ff" stroke-opacity="0.45" />
      <text x="48" y="132" fill="#00f3ff">user_pb.py</text>
      <rect x="28" y="154" width="244" height="36" rx="6" fill="#ff66ff" fill-opacity="0.12" stroke="#ff66ff" stroke-opacity="0.45" />
      <text x="48" y="178" fill="#ff66ff">User.java</text>
      <rect x="28" y="200" width="244" height="36" rx="6" fill="#facc15" fill-opacity="0.12" stroke="#facc15" stroke-opacity="0.45" />
      <text x="48" y="224" fill="#facc15">user_pb.ts</text>
    </g>
  </g>

  <g transform="translate(312 512)">
    <rect width="576" height="50" rx="25" fill="#ff66ff" fill-opacity="0.12" stroke="#ff66ff" stroke-opacity="0.55" />
    <text x="288" y="33" fill="#e2e8f0" font-size="21" font-weight="800" text-anchor="middle">One schema can generate code for many runtimes</text>
  </g>
</svg>
