<svg viewBox="0 0 1200 630" xmlns="http://www.w3.org/2000/svg" font-family="Inter, ui-sans-serif, system-ui, sans-serif">
  <defs>
    <linearGradient id="validate-gradient" x1="0%" y1="0%" x2="100%" y2="0%">
      <stop offset="0%" stop-color="#00f3ff" />
      <stop offset="50%" stop-color="#00ff9f" />
      <stop offset="100%" stop-color="#ff66ff" />
    </linearGradient>
    <filter id="validate-glow" x="-20%" y="-20%" width="140%" height="140%">
      <feGaussianBlur stdDeviation="10" result="blur" />
      <feComposite in="SourceGraphic" in2="blur" operator="over" />
    </filter>
    <marker id="validate-arrow" markerWidth="12" markerHeight="8" refX="11" refY="4" orient="auto">
      <polygon points="0 0, 12 4, 0 8" fill="#00f3ff" opacity="0.9" />
    </marker>
    <pattern id="validate-grid" width="44" height="44" patternUnits="userSpaceOnUse">
      <path d="M 44 0 L 0 0 0 44" fill="none" stroke="#00f3ff" stroke-width="1" opacity="0.12" />
    </pattern>
  </defs>

  <rect width="1200" height="630" fill="#050505" />
  <rect width="1200" height="630" fill="url(#validate-grid)" />
  <circle cx="590" cy="312" r="310" fill="#00ff9f" opacity="0.03" filter="url(#validate-glow)" />

  <text x="72" y="82" fill="#e2e8f0" font-size="46" font-weight="800">Protovalidate turns data into clear errors</text>
  <text x="74" y="120" fill="#94a3b8" font-size="22">Rules live next to fields, then validation can report JSON-friendly paths.</text>

  <g transform="translate(54 170)">
    <rect width="300" height="330" rx="10" fill="#0d0d12" stroke="#00f3ff" stroke-width="2" />
    <text x="24" y="42" fill="#94a3b8" font-size="14" font-weight="800" letter-spacing="3">PROTOBUF</text>
    <g font-family="ui-monospace, SFMono-Regular, Menlo, monospace" font-size="16">
      <text x="24" y="84" fill="#ff66ff">message</text>
      <text x="110" y="84" fill="#e2e8f0">Signup {</text>
      <text x="40" y="116" fill="#00f3ff">string</text>
      <text x="110" y="116" fill="#e2e8f0">email = 1;</text>
      <text x="40" y="148" fill="#94a3b8">[(buf.validate.field)</text>
      <text x="40" y="178" fill="#94a3b8">.string.email = true];</text>
      <text x="40" y="212" fill="#00f3ff">int32</text>
      <text x="100" y="212" fill="#e2e8f0">age = 2;</text>
      <text x="40" y="244" fill="#94a3b8">[(buf.validate.field)</text>
      <text x="40" y="274" fill="#94a3b8">.int32.gte = 18];</text>
      <text x="24" y="306" fill="#e2e8f0">}</text>
    </g>
  </g>

  <path d="M 358 335 L 414 335" fill="none" stroke="#00f3ff" stroke-width="4" marker-end="url(#validate-arrow)" />

  <g transform="translate(430 170)">
    <rect width="300" height="330" rx="10" fill="#0d0d12" stroke="#00ff9f" stroke-width="2" />
    <text x="24" y="42" fill="#94a3b8" font-size="14" font-weight="800" letter-spacing="3">JSON INPUT</text>
    <g font-family="ui-monospace, SFMono-Regular, Menlo, monospace" font-size="21">
      <text x="24" y="96" fill="#e2e8f0">{</text>
      <text x="48" y="142" fill="#00f3ff">"email"</text>
      <text x="138" y="142" fill="#e2e8f0">:</text>
      <text x="48" y="176" fill="#ff66ff">"not-email"</text>
      <text x="48" y="226" fill="#00f3ff">"age"</text>
      <text x="116" y="226" fill="#e2e8f0">:</text>
      <text x="138" y="226" fill="#facc15">15</text>
      <text x="24" y="268" fill="#e2e8f0">}</text>
    </g>
  </g>

  <path d="M 734 335 L 790 335" fill="none" stroke="#00f3ff" stroke-width="4" marker-end="url(#validate-arrow)" />

  <g transform="translate(806 170)">
    <rect width="340" height="330" rx="10" fill="#0d0d12" stroke="url(#validate-gradient)" stroke-width="3" filter="url(#validate-glow)" />
    <text x="24" y="42" fill="#94a3b8" font-size="14" font-weight="800" letter-spacing="3">VALIDATION ERRORS</text>
    <g font-family="ui-monospace, SFMono-Regular, Menlo, monospace" font-size="17">
      <rect x="24" y="72" width="292" height="70" rx="8" fill="#ff66ff" fill-opacity="0.12" stroke="#ff66ff" stroke-opacity="0.45" />
      <text x="42" y="106" fill="#ff66ff">email</text>
      <text x="42" y="130" fill="#e2e8f0">must be a valid email</text>
      <rect x="24" y="162" width="292" height="70" rx="8" fill="#00f3ff" fill-opacity="0.12" stroke="#00f3ff" stroke-opacity="0.45" />
      <text x="42" y="196" fill="#00f3ff">age</text>
      <text x="86" y="196" fill="#e2e8f0">must be at least 18</text>
      <text x="42" y="264" fill="#94a3b8">paths match JSON names</text>
    </g>
  </g>

  <text x="600" y="555" fill="#e2e8f0" font-size="24" text-anchor="middle">One schema can drive binary APIs, JSON input, and validation feedback.</text>
</svg>
