<svg viewBox="0 0 1200 630" xmlns="http://www.w3.org/2000/svg" font-family="Inter, ui-sans-serif, system-ui, sans-serif">
  <defs>
    <linearGradient id="schema-data-binary-gradient" x1="0%" y1="0%" x2="100%" y2="0%">
      <stop offset="0%" stop-color="#00f3ff" />
      <stop offset="55%" stop-color="#00ff9f" />
      <stop offset="100%" stop-color="#ff66ff" />
    </linearGradient>
    <filter id="schema-data-binary-glow" x="-20%" y="-20%" width="140%" height="140%">
      <feGaussianBlur stdDeviation="12" result="blur" />
      <feComposite in="SourceGraphic" in2="blur" operator="over" />
    </filter>
    <marker id="schema-data-binary-arrow" markerWidth="12" markerHeight="8" refX="11" refY="4" orient="auto">
      <polygon points="0 0, 12 4, 0 8" fill="#00f3ff" opacity="0.85" />
    </marker>
    <pattern id="schema-data-binary-grid" width="44" height="44" patternUnits="userSpaceOnUse">
      <path d="M 44 0 L 0 0 0 44" fill="none" stroke="#00f3ff" stroke-width="1" opacity="0.13" />
    </pattern>
  </defs>

  <rect width="1200" height="630" fill="#050505" />
  <rect width="1200" height="630" fill="url(#schema-data-binary-grid)" />
  <circle cx="610" cy="310" r="330" fill="#00f3ff" opacity="0.035" filter="url(#schema-data-binary-glow)" />

  <text x="72" y="82" fill="#e2e8f0" font-size="46" font-weight="800">Schema + data becomes bytes</text>
  <text x="74" y="120" fill="#94a3b8" font-size="22">Protobuf encodes field numbers and values, not field names.</text>

  <g transform="translate(70 190)">
    <rect width="300" height="255" rx="10" fill="#0d0d12" stroke="#00f3ff" stroke-width="2" />
    <text x="28" y="42" fill="#94a3b8" font-size="14" font-weight="800" letter-spacing="3">SCHEMA</text>
    <g font-family="ui-monospace, SFMono-Regular, Menlo, monospace" font-size="22">
      <text x="28" y="88" fill="#ff66ff">message</text>
      <text x="140" y="88" fill="#e2e8f0">User {</text>
      <text x="48" y="134" fill="#00f3ff">string</text>
      <text x="138" y="134" fill="#e2e8f0">name =</text>
      <text x="225" y="134" fill="#facc15">1</text>
      <text x="240" y="134" fill="#e2e8f0">;</text>
      <text x="48" y="180" fill="#00f3ff">bool</text>
      <text x="112" y="180" fill="#e2e8f0">active =</text>
      <text x="225" y="180" fill="#facc15">2</text>
      <text x="240" y="180" fill="#e2e8f0">;</text>
      <text x="28" y="226" fill="#e2e8f0">}</text>
    </g>
  </g>

  <g transform="translate(450 190)">
    <rect width="300" height="255" rx="10" fill="#0d0d12" stroke="#00ff9f" stroke-width="2" />
    <text x="28" y="42" fill="#94a3b8" font-size="14" font-weight="800" letter-spacing="3">DATA</text>
    <g font-family="ui-monospace, SFMono-Regular, Menlo, monospace" font-size="24">
      <text x="38" y="104" fill="#00f3ff">name</text>
      <text x="104" y="104" fill="#e2e8f0">:</text>
      <text x="128" y="104" fill="#00ff9f">"Ada"</text>
      <text x="38" y="166" fill="#00f3ff">active</text>
      <text x="130" y="166" fill="#e2e8f0">:</text>
      <text x="154" y="166" fill="#00ff9f">true</text>
    </g>
  </g>

  <path d="M 374 318 L 426 318" fill="none" stroke="#00f3ff" stroke-width="4" marker-end="url(#schema-data-binary-arrow)" />
  <path d="M 754 318 L 826 318" fill="none" stroke="#00f3ff" stroke-width="4" marker-end="url(#schema-data-binary-arrow)" />

  <g transform="translate(840 190)">
    <rect width="290" height="255" rx="10" fill="#0d0d12" stroke="url(#schema-data-binary-gradient)" stroke-width="3" filter="url(#schema-data-binary-glow)" />
    <text x="28" y="42" fill="#94a3b8" font-size="14" font-weight="800" letter-spacing="3">BINARY</text>
    <g font-family="ui-monospace, SFMono-Regular, Menlo, monospace" font-size="22" font-weight="800">
      <rect x="30" y="72" width="48" height="42" rx="6" fill="#00f3ff" fill-opacity="0.16" />
      <text x="54" y="100" fill="#00f3ff" text-anchor="middle">0a</text>
      <rect x="88" y="72" width="48" height="42" rx="6" fill="#facc15" fill-opacity="0.16" />
      <text x="112" y="100" fill="#facc15" text-anchor="middle">03</text>
      <rect x="146" y="72" width="48" height="42" rx="6" fill="#00ff9f" fill-opacity="0.16" />
      <text x="170" y="100" fill="#00ff9f" text-anchor="middle">41</text>
      <rect x="204" y="72" width="48" height="42" rx="6" fill="#00ff9f" fill-opacity="0.16" />
      <text x="228" y="100" fill="#00ff9f" text-anchor="middle">64</text>
      <rect x="30" y="148" width="48" height="42" rx="6" fill="#00ff9f" fill-opacity="0.16" />
      <text x="54" y="176" fill="#00ff9f" text-anchor="middle">61</text>
      <rect x="88" y="148" width="48" height="42" rx="6" fill="#ff66ff" fill-opacity="0.16" />
      <text x="112" y="176" fill="#ff66ff" text-anchor="middle">10</text>
      <rect x="146" y="148" width="48" height="42" rx="6" fill="#00ff9f" fill-opacity="0.16" />
      <text x="170" y="176" fill="#00ff9f" text-anchor="middle">01</text>
    </g>
    <g font-family="ui-monospace, SFMono-Regular, Menlo, monospace" font-size="11">
      <text x="54" y="130" fill="#94a3b8" text-anchor="middle">field 1</text>
      <text x="112" y="130" fill="#94a3b8" text-anchor="middle">len</text>
      <text x="199" y="130" fill="#94a3b8" text-anchor="middle">"Ad"</text>
      <text x="54" y="206" fill="#94a3b8" text-anchor="middle">"a"</text>
      <text x="112" y="206" fill="#94a3b8" text-anchor="middle">field 2</text>
      <text x="170" y="206" fill="#94a3b8" text-anchor="middle">true</text>
    </g>
    <text x="145" y="235" fill="#94a3b8" font-size="18" text-anchor="middle">tags + lengths + values</text>
  </g>

  <text x="600" y="540" fill="#e2e8f0" font-size="24" text-anchor="middle">The schema tells readers what field 1 and field 2 mean.</text>
</svg>
